<mxfile host="Electron" modified="2024-03-10T11:22:58.892Z" agent="Mozilla/5.0 (Macintosh; Intel Mac OS X 10_15_7) AppleWebKit/537.36 (KHTML, like Gecko) draw.io/21.6.8 Chrome/114.0.5735.289 Electron/25.5.0 Safari/537.36" etag="URi0_nENyK2_CanqdXN6" version="21.6.8" type="device">
  <diagram name="Page-1" id="OM8HbU_3lVgDTXmEJBuc">
    <mxGraphModel dx="2044" dy="824" grid="1" gridSize="10" guides="1" tooltips="1" connect="1" arrows="1" fold="1" page="1" pageScale="1" pageWidth="850" pageHeight="1100" math="1" shadow="0">
      <root>
        <mxCell id="0" />
        <mxCell id="1" parent="0" />
        <mxCell id="Gq7kbqdKJ8vSt0Jsd_ic-34" value="" style="endArrow=classic;html=1;rounded=0;strokeColor=#E07A5F;fontColor=#393C56;fillColor=#F2CC8F;" parent="1" edge="1">
          <mxGeometry width="50" height="50" relative="1" as="geometry">
            <mxPoint x="-260" y="219.5" as="sourcePoint" />
            <mxPoint x="-200" y="219.5" as="targetPoint" />
          </mxGeometry>
        </mxCell>
        <mxCell id="Gq7kbqdKJ8vSt0Jsd_ic-36" value="&lt;font style=&quot;font-size: 14px;&quot;&gt;节点拆除方向&lt;/font&gt;" style="text;html=1;align=center;verticalAlign=middle;resizable=0;points=[];autosize=1;strokeColor=none;fillColor=none;fontColor=#393C56;" parent="1" vertex="1">
          <mxGeometry x="-200" y="205" width="110" height="30" as="geometry" />
        </mxCell>
        <mxCell id="Gq7kbqdKJ8vSt0Jsd_ic-39" value="&lt;div style=&quot;color: rgb(59, 59, 59); background-color: rgb(255, 255, 255); font-family: &amp;quot;cascadia code&amp;quot;, Menlo, Monaco, &amp;quot;Courier New&amp;quot;, monospace, Menlo, Monaco, &amp;quot;Courier New&amp;quot;, monospace; font-size: 15px; line-height: 23px;&quot;&gt;&lt;br&gt;&lt;/div&gt;" style="text;html=1;align=center;verticalAlign=middle;resizable=0;points=[];autosize=1;strokeColor=none;fillColor=none;fontColor=#393C56;" parent="1" vertex="1">
          <mxGeometry x="-200" y="235" width="20" height="40" as="geometry" />
        </mxCell>
        <mxCell id="PPsBpuw6LFoZPjxlbZUj-1" value="$$\frac{\sigma(G \backslash \{v_1, v_2, v_3\})}{\sigma(G)}$$" style="text;html=1;strokeColor=none;fillColor=none;align=center;verticalAlign=middle;whiteSpace=wrap;rounded=0;" parent="1" vertex="1">
          <mxGeometry x="-240" y="405" width="120" height="30" as="geometry" />
        </mxCell>
        <mxCell id="PPsBpuw6LFoZPjxlbZUj-2" value="$$\frac{\sigma(G \backslash \{v_1, v_2\})}{\sigma(G)}$$" style="text;html=1;strokeColor=none;fillColor=none;align=center;verticalAlign=middle;whiteSpace=wrap;rounded=0;" parent="1" vertex="1">
          <mxGeometry x="-437.5" y="515" width="75" height="40" as="geometry" />
        </mxCell>
        <mxCell id="iQCZnT7VJ7-S2rj4FLvg-2" value="" style="endArrow=classic;html=1;rounded=0;strokeColor=#6c8ebf;fontColor=#393C56;fillColor=#dae8fc;" parent="1" edge="1">
          <mxGeometry width="50" height="50" relative="1" as="geometry">
            <mxPoint x="-260" y="259.5" as="sourcePoint" />
            <mxPoint x="-200" y="259.5" as="targetPoint" />
          </mxGeometry>
        </mxCell>
        <mxCell id="iQCZnT7VJ7-S2rj4FLvg-3" value="&lt;font style=&quot;font-size: 14px;&quot;&gt;一轮拆除示例&lt;/font&gt;" style="text;html=1;align=center;verticalAlign=middle;resizable=0;points=[];autosize=1;strokeColor=none;fillColor=none;fontColor=#393C56;" parent="1" vertex="1">
          <mxGeometry x="-200" y="245" width="110" height="30" as="geometry" />
        </mxCell>
        <mxCell id="oEVggR8wbCnWafXuwIs6-1" value="&lt;span style=&quot;font-size: 24px;&quot;&gt;(1,1,1)&lt;/span&gt;" style="rounded=1;whiteSpace=wrap;html=1;labelBackgroundColor=none;fillColor=#F2CC8F;strokeColor=#E07A5F;fontColor=#393C56;" vertex="1" parent="1">
          <mxGeometry x="-800" y="395" width="80" height="40" as="geometry" />
        </mxCell>
        <mxCell id="oEVggR8wbCnWafXuwIs6-2" value="&lt;span style=&quot;font-size: 24px;&quot;&gt;(1,1,0)&lt;/span&gt;" style="rounded=1;whiteSpace=wrap;html=1;labelBackgroundColor=none;fillColor=#F2CC8F;strokeColor=#E07A5F;fontColor=#393C56;" vertex="1" parent="1">
          <mxGeometry x="-680" y="315" width="80" height="40" as="geometry" />
        </mxCell>
        <mxCell id="oEVggR8wbCnWafXuwIs6-3" value="&lt;span style=&quot;font-size: 24px;&quot;&gt;(1,0,1)&lt;/span&gt;" style="rounded=1;whiteSpace=wrap;html=1;labelBackgroundColor=none;fillColor=#F2CC8F;strokeColor=#E07A5F;fontColor=#393C56;" vertex="1" parent="1">
          <mxGeometry x="-680" y="475" width="80" height="40" as="geometry" />
        </mxCell>
        <mxCell id="oEVggR8wbCnWafXuwIs6-4" value="&lt;span style=&quot;font-size: 24px;&quot;&gt;(0,1,1)&lt;/span&gt;" style="rounded=1;whiteSpace=wrap;html=1;labelBackgroundColor=none;fillColor=#F2CC8F;strokeColor=#E07A5F;fontColor=#393C56;" vertex="1" parent="1">
          <mxGeometry x="-560" y="235" width="80" height="40" as="geometry" />
        </mxCell>
        <mxCell id="oEVggR8wbCnWafXuwIs6-5" value="&lt;span style=&quot;font-size: 24px;&quot;&gt;(0,1,0)&lt;/span&gt;" style="rounded=1;whiteSpace=wrap;html=1;labelBackgroundColor=none;fillColor=#F2CC8F;strokeColor=#E07A5F;fontColor=#393C56;" vertex="1" parent="1">
          <mxGeometry x="-440" y="315" width="80" height="40" as="geometry" />
        </mxCell>
        <mxCell id="oEVggR8wbCnWafXuwIs6-6" value="&lt;span style=&quot;font-size: 24px;&quot;&gt;(1,0,0)&lt;/span&gt;" style="rounded=1;whiteSpace=wrap;html=1;labelBackgroundColor=none;fillColor=#F2CC8F;strokeColor=#E07A5F;fontColor=#393C56;" vertex="1" parent="1">
          <mxGeometry x="-560" y="555" width="80" height="40" as="geometry" />
        </mxCell>
        <mxCell id="oEVggR8wbCnWafXuwIs6-7" value="&lt;span style=&quot;font-size: 24px;&quot;&gt;(0,0,1)&lt;/span&gt;" style="rounded=1;whiteSpace=wrap;html=1;labelBackgroundColor=none;fillColor=#F2CC8F;strokeColor=#E07A5F;fontColor=#393C56;" vertex="1" parent="1">
          <mxGeometry x="-440" y="475" width="80" height="40" as="geometry" />
        </mxCell>
        <mxCell id="oEVggR8wbCnWafXuwIs6-8" value="&lt;span style=&quot;font-size: 24px;&quot;&gt;(0,0,0)&lt;/span&gt;" style="rounded=1;whiteSpace=wrap;html=1;labelBackgroundColor=none;fillColor=#F2CC8F;strokeColor=#E07A5F;fontColor=#393C56;" vertex="1" parent="1">
          <mxGeometry x="-320" y="395" width="80" height="40" as="geometry" />
        </mxCell>
        <mxCell id="oEVggR8wbCnWafXuwIs6-9" value="" style="endArrow=classic;html=1;rounded=0;exitX=1;exitY=0.5;exitDx=0;exitDy=0;entryX=0;entryY=0.5;entryDx=0;entryDy=0;fillColor=#f8cecc;strokeColor=#b85450;" edge="1" parent="1" source="oEVggR8wbCnWafXuwIs6-2" target="oEVggR8wbCnWafXuwIs6-5">
          <mxGeometry width="50" height="50" relative="1" as="geometry">
            <mxPoint x="-500" y="205" as="sourcePoint" />
            <mxPoint x="-450" y="155" as="targetPoint" />
          </mxGeometry>
        </mxCell>
        <mxCell id="oEVggR8wbCnWafXuwIs6-10" value="" style="endArrow=classic;html=1;rounded=0;exitX=1;exitY=0.75;exitDx=0;exitDy=0;entryX=0.5;entryY=0;entryDx=0;entryDy=0;fillColor=#f8cecc;strokeColor=#b85450;" edge="1" parent="1" source="oEVggR8wbCnWafXuwIs6-2" target="oEVggR8wbCnWafXuwIs6-6">
          <mxGeometry width="50" height="50" relative="1" as="geometry">
            <mxPoint x="-500" y="65" as="sourcePoint" />
            <mxPoint x="-450" y="15" as="targetPoint" />
            <Array as="points">
              <mxPoint x="-520" y="345" />
            </Array>
          </mxGeometry>
        </mxCell>
        <mxCell id="oEVggR8wbCnWafXuwIs6-11" value="" style="endArrow=classic;html=1;rounded=0;exitX=0.5;exitY=1;exitDx=0;exitDy=0;entryX=0.5;entryY=0;entryDx=0;entryDy=0;fillColor=#dae8fc;strokeColor=#6c8ebf;" edge="1" parent="1" source="oEVggR8wbCnWafXuwIs6-4" target="oEVggR8wbCnWafXuwIs6-7">
          <mxGeometry width="50" height="50" relative="1" as="geometry">
            <mxPoint x="-430" y="205" as="sourcePoint" />
            <mxPoint x="-400" y="435" as="targetPoint" />
            <Array as="points">
              <mxPoint x="-520" y="315" />
              <mxPoint x="-480" y="315" />
              <mxPoint x="-480" y="435" />
              <mxPoint x="-400" y="435" />
            </Array>
          </mxGeometry>
        </mxCell>
        <mxCell id="oEVggR8wbCnWafXuwIs6-12" value="" style="endArrow=classic;html=1;rounded=0;exitX=1;exitY=0.5;exitDx=0;exitDy=0;entryX=0.5;entryY=0;entryDx=0;entryDy=0;fillColor=#f8cecc;strokeColor=#b85450;" edge="1" parent="1" source="oEVggR8wbCnWafXuwIs6-4" target="oEVggR8wbCnWafXuwIs6-5">
          <mxGeometry width="50" height="50" relative="1" as="geometry">
            <mxPoint x="-500" y="105" as="sourcePoint" />
            <mxPoint x="-450" y="55" as="targetPoint" />
            <Array as="points">
              <mxPoint x="-400" y="255" />
            </Array>
          </mxGeometry>
        </mxCell>
        <mxCell id="oEVggR8wbCnWafXuwIs6-13" value="" style="endArrow=classic;html=1;rounded=0;exitX=1;exitY=0.5;exitDx=0;exitDy=0;entryX=0.5;entryY=0;entryDx=0;entryDy=0;fillColor=#f8cecc;strokeColor=#b85450;" edge="1" parent="1" source="oEVggR8wbCnWafXuwIs6-5" target="oEVggR8wbCnWafXuwIs6-8">
          <mxGeometry width="50" height="50" relative="1" as="geometry">
            <mxPoint x="-500" y="215" as="sourcePoint" />
            <mxPoint x="-450" y="165" as="targetPoint" />
            <Array as="points">
              <mxPoint x="-280" y="335" />
            </Array>
          </mxGeometry>
        </mxCell>
        <mxCell id="oEVggR8wbCnWafXuwIs6-14" value="" style="endArrow=classic;html=1;rounded=0;exitX=1;exitY=0.5;exitDx=0;exitDy=0;entryX=0.5;entryY=1;entryDx=0;entryDy=0;fillColor=#f8cecc;strokeColor=#b85450;" edge="1" parent="1" source="oEVggR8wbCnWafXuwIs6-6" target="oEVggR8wbCnWafXuwIs6-8">
          <mxGeometry width="50" height="50" relative="1" as="geometry">
            <mxPoint x="-470" y="575" as="sourcePoint" />
            <mxPoint x="-450" y="305" as="targetPoint" />
            <Array as="points">
              <mxPoint x="-280" y="575" />
            </Array>
          </mxGeometry>
        </mxCell>
        <mxCell id="oEVggR8wbCnWafXuwIs6-15" value="" style="endArrow=classic;html=1;rounded=0;exitX=1;exitY=0.5;exitDx=0;exitDy=0;entryX=0;entryY=0.5;entryDx=0;entryDy=0;fillColor=#dae8fc;strokeColor=#6c8ebf;" edge="1" parent="1" source="oEVggR8wbCnWafXuwIs6-7" target="oEVggR8wbCnWafXuwIs6-8">
          <mxGeometry width="50" height="50" relative="1" as="geometry">
            <mxPoint x="-500" y="305" as="sourcePoint" />
            <mxPoint x="-450" y="255" as="targetPoint" />
            <Array as="points">
              <mxPoint x="-340" y="495" />
              <mxPoint x="-340" y="415" />
            </Array>
          </mxGeometry>
        </mxCell>
        <mxCell id="oEVggR8wbCnWafXuwIs6-16" value="" style="endArrow=classic;html=1;rounded=0;exitX=1;exitY=0.25;exitDx=0;exitDy=0;entryX=0;entryY=0.5;entryDx=0;entryDy=0;fillColor=#f8cecc;strokeColor=#b85450;" edge="1" parent="1" source="oEVggR8wbCnWafXuwIs6-1" target="oEVggR8wbCnWafXuwIs6-2">
          <mxGeometry width="50" height="50" relative="1" as="geometry">
            <mxPoint x="-500" y="215" as="sourcePoint" />
            <mxPoint x="-450" y="165" as="targetPoint" />
            <Array as="points">
              <mxPoint x="-700" y="405" />
              <mxPoint x="-700" y="335" />
            </Array>
          </mxGeometry>
        </mxCell>
        <mxCell id="oEVggR8wbCnWafXuwIs6-17" value="" style="endArrow=classic;html=1;rounded=0;exitX=1;exitY=0.75;exitDx=0;exitDy=0;entryX=0;entryY=0.5;entryDx=0;entryDy=0;fillColor=#f8cecc;strokeColor=#b85450;" edge="1" parent="1" source="oEVggR8wbCnWafXuwIs6-1" target="oEVggR8wbCnWafXuwIs6-3">
          <mxGeometry width="50" height="50" relative="1" as="geometry">
            <mxPoint x="-500" y="85" as="sourcePoint" />
            <mxPoint x="-590" y="435" as="targetPoint" />
            <Array as="points">
              <mxPoint x="-700" y="425" />
              <mxPoint x="-700" y="495" />
            </Array>
          </mxGeometry>
        </mxCell>
        <mxCell id="oEVggR8wbCnWafXuwIs6-18" value="" style="endArrow=classic;html=1;rounded=0;exitX=1;exitY=0.5;exitDx=0;exitDy=0;entryX=0;entryY=0.5;entryDx=0;entryDy=0;fillColor=#f8cecc;strokeColor=#b85450;" edge="1" parent="1" source="oEVggR8wbCnWafXuwIs6-3" target="oEVggR8wbCnWafXuwIs6-7">
          <mxGeometry width="50" height="50" relative="1" as="geometry">
            <mxPoint x="-500" y="375" as="sourcePoint" />
            <mxPoint x="-450" y="325" as="targetPoint" />
          </mxGeometry>
        </mxCell>
        <mxCell id="oEVggR8wbCnWafXuwIs6-19" value="" style="endArrow=classic;html=1;rounded=0;exitX=0.5;exitY=0;exitDx=0;exitDy=0;entryX=0;entryY=0.5;entryDx=0;entryDy=0;fillColor=#dae8fc;strokeColor=#6c8ebf;" edge="1" parent="1" source="oEVggR8wbCnWafXuwIs6-1" target="oEVggR8wbCnWafXuwIs6-4">
          <mxGeometry width="50" height="50" relative="1" as="geometry">
            <mxPoint x="-500" y="295" as="sourcePoint" />
            <mxPoint x="-450" y="245" as="targetPoint" />
            <Array as="points">
              <mxPoint x="-760" y="255" />
            </Array>
          </mxGeometry>
        </mxCell>
        <mxCell id="oEVggR8wbCnWafXuwIs6-20" value="" style="endArrow=classic;html=1;rounded=0;exitX=0.5;exitY=1;exitDx=0;exitDy=0;entryX=0;entryY=0.5;entryDx=0;entryDy=0;fillColor=#f8cecc;strokeColor=#b85450;" edge="1" parent="1" source="oEVggR8wbCnWafXuwIs6-3" target="oEVggR8wbCnWafXuwIs6-6">
          <mxGeometry width="50" height="50" relative="1" as="geometry">
            <mxPoint x="-500" y="285" as="sourcePoint" />
            <mxPoint x="-450" y="235" as="targetPoint" />
            <Array as="points">
              <mxPoint x="-640" y="575" />
            </Array>
          </mxGeometry>
        </mxCell>
        <mxCell id="oEVggR8wbCnWafXuwIs6-21" value="$$\frac{\sigma(G \backslash \{v_1\})}{\sigma(G)}$$" style="text;html=1;strokeColor=none;fillColor=none;align=center;verticalAlign=middle;whiteSpace=wrap;rounded=0;" vertex="1" parent="1">
          <mxGeometry x="-560" y="195" width="80" height="40" as="geometry" />
        </mxCell>
      </root>
    </mxGraphModel>
  </diagram>
</mxfile>
